<svg xmlns="http://www.w3.org/2000/svg" width="600" height="363.612" viewBox="0 0 600 363.612"><path d="M340.425 340.266l-7.783-1.851-10.457-2.469-6.96-1.611-6.893-1.646-13.577-3.189-11.487-2.708c-.582-.035-1.165-.07-1.748-.172-.035 0-.069-.034-.103-.034a6.4 6.4 0 0 1-1.337-.343c-8.024-3.017-16.218-4.869-24.516-6.823-8.743-1.989-16.595-6.652-25.647-8.298-8.194-1.508-16.046-4.663-23.898-8.126-6.514-2.88-13.612-4.457-20.263-7.371l-.035-.035a40.021 40.021 0 0 1-6.103-3.223c-.309-.137-.651-.24-.96-.411-.034 0-.034-.035-.068-.035-.069 0-.138-.034-.24-.068-26.265-11.178-61.992-44.265-61.992-44.265-17.692-15.12-26.538-35.042-30.79-57.363-.445-2.263-.171-4.628-3.497-4.354v-27.43c0-4.491-.72-9.155.206-13.44 1.063-5.006 4.286-9.567 5.28-14.573 1.131-5.691 5.246-10.457 4.8-16.56v-3.429c7.2-1.749 6.686-9.258 10.286-13.715v-3.429c4.698-1.783 8.366-5.28 10.08-9.566 2.127-5.349 5.624-8.64 10.493-11.006 0 0 9.703-11.383 13.714-13.715l6.858-5.966c3.292-3.257 6.617-6.686 8.4-7.509 0 0-2.537-1.371-6.686-2.88a73.373 73.373 0 0 0-8.572-2.537c-4.114-.994-8.811-1.68-13.714-1.68-4.355.171-8.058.617-12.412 3.223C98.837 48.79 90.06 59.522 79.157 67.82c-16.115 12.31-25.99 30.344-35.42 48.242-2.708 5.212-8.468 9.566-9.291 14.846-2.4 15.567-9.532 30.345-7.372 46.7.857 6.72.103 13.646.137 20.47.035 8.125 8.915 30.378 11.658 39.532 1.92 6.48 7.406 11.795 9.189 18.276v.068c.137.514.274 1.029.343 1.577.274.412 2.263 3.052 5.623 7.2 5.623 6.858 15.12 17.761 27.19 29.11.205.172.377.343.548.515a286.163 286.163 0 0 0 10.458 9.257h.034c.069.755.412 1.338 1.337 1.509.24.034.48.103.72.206a218.23 218.23 0 0 0 10.767 8.297c.994.72 1.988 1.44 3.017 2.126 13.646 9.43 28.767 17.28 44.402 20.778.274.069.549.103.823.172 1.988.342 3.943.72 5.897 1.165.137.035.275.035.412.069 10.457 2.366 20.743 5.692 31.647 5.692.514 0 1.028.034 1.543.102 0 0 27.875 1.372 67.683 1.132 16.87-.069 35.83-.446 55.75-1.303h.035c8.23.96 16.595-.651 24.893-.274.377.034.788-.72 1.2-1.132-.652-.651-1.509-2.023-1.955-1.886zm-296.07-129.64v-.754c.069-.343.137-.72.171-1.063-.034.377 0 .72-.068 1.063 1.131.206 1.92-.103 2.468-.686-.514.72-1.371 1.235-2.571 1.44zm23.83 45.877c0-.24-.035-.48-.069-.686l.103.72s0-.034-.034-.034zm119.42-64.562c2.974-2.719 4.93-6.543 4.93-11.47 0-8.496-6.373-13-11.81-14.274v-.254c5.946-2.125 9.683-6.968 9.683-12.575 0-4.504-1.868-7.902-4.842-10.112-3.482-2.888-8.24-4.162-15.633-4.162-5.096 0-10.28.509-13.51 1.274v56.247c2.464.338 6.374.68 11.47.68 9.346 0 15.805-1.701 19.712-5.354zm-23.79-46.646c1.189-.255 3.144-.509 6.543-.509 7.477 0 12.49 2.719 12.49 9.345 0 5.523-4.588 9.687-12.32 9.687h-6.713v-18.523zm0 24.046h6.118c8.073 0 14.783 3.313 14.783 11.045 0 8.327-7.052 11.13-14.7 11.13-2.631 0-4.67-.084-6.2-.338V169.34zm52.342 28.378c7.306 0 11.726-4.333 13.594-7.646h.171l.425 6.711h6.627c-.255-3.23-.342-6.966-.342-11.3V155.66h-7.477v25.15c0 1.445-.254 2.804-.68 3.824-1.359 3.398-4.841 6.88-9.854 6.88-6.713 0-9.178-5.352-9.178-13.168V155.66h-7.476v24.045c0 14.36 7.731 18.013 14.19 18.013zm32.884-.935h7.477v-21.92c0-1.19.087-2.464.255-3.484 1.02-5.608 4.761-9.516 10.028-9.516 1.018 0 1.785 0 2.548.17v-7.052c-.68-.086-1.276-.171-2.04-.171-5.012 0-9.599 3.484-11.47 9.007h-.255l-.338-8.157h-6.543c.255 3.824.338 7.986.338 12.83v28.293zm40.19-1.274c0 .426-.254 1.02-.595 1.785-1.785 3.822-4.25 6.71-6.289 8.327-2.206 1.869-4.67 3.057-6.542 3.653l1.871 6.202c1.869-.339 5.438-1.614 9.175-4.758 5.1-4.504 8.753-11.641 14.107-25.744l11.213-29.314h-7.902l-8.156 24.13c-1.018 2.974-1.869 6.118-2.636 8.582h-.167a106.938 106.938 0 0 0-2.719-8.412l-8.923-24.3h-8.157l15.125 37.894c.425.936.596 1.53.596 1.955zm46.734-24.386h-20.988v5.438h20.988v-5.438zm41.891 9.941c-1.36-5.946-3.994-10.025-8.327-11.555v-.254c5.946-2.04 10.704-7.052 10.704-14.529 0-4.503-1.697-8.41-4.503-10.96-3.482-3.145-8.666-4.673-16.568-4.673-5.012 0-10.45.509-14.187 1.188v56.502h7.39v-24.81h6.968c6.71.255 9.854 3.228 11.555 11.13 1.53 7.138 2.803 11.981 3.737 13.68h7.648c-1.189-2.208-2.548-7.731-4.417-15.719zm-17.927-14.699h-7.564v-20.9c1.276-.34 3.74-.595 7.306-.595 7.819 0 13.17 3.228 13.17 10.62 0 6.542-5.013 10.875-12.912 10.875zm68.059 9.516c0-12.49-7.99-21.071-19.799-21.071-11.3 0-20.392 8.073-20.392 21.75 0 13.001 8.67 21.158 19.712 21.158 9.858 0 20.479-6.627 20.479-21.837zm-32.543.425c0-7.73 3.824-15.888 12.573-15.888 8.84 0 12.322 8.751 12.322 15.72 0 9.26-5.354 15.973-12.49 15.973-7.305 0-12.405-6.797-12.405-15.805zm66.02 9.008c0-6.118-3.737-9.687-10.789-12.32-5.354-2.125-7.731-3.654-7.731-7.052 0-3.06 2.377-5.609 6.797-5.609 3.824 0 6.797 1.445 8.411 2.464l1.785-5.437c-2.21-1.445-5.863-2.55-10.025-2.55-8.753 0-14.19 5.438-14.19 12.066 0 4.927 3.482 8.922 10.959 11.64 5.438 2.04 7.564 3.908 7.564 7.477 0 3.483-2.552 6.118-7.902 6.118-3.74 0-7.648-1.53-9.942-2.89l-1.784 5.609c2.89 1.699 7.051 2.888 11.555 2.888 9.6 0 15.292-5.098 15.292-12.404zm31.525 6.286h.254l.596 5.183h6.714c-.426-2.804-.596-6.286-.596-9.856V171.55c0-8.156-3.06-16.738-15.634-16.738-5.183 0-10.196 1.445-13.594 3.57l1.697 5.012c2.89-1.954 6.885-3.059 10.792-3.059 8.411-.085 9.345 6.118 9.345 9.43v.851c-15.888-.085-24.724 5.353-24.724 15.294 0 5.948 4.25 11.81 12.577 11.81 5.86 0 10.279-2.888 12.573-6.118zm-10.705.594c-3.74 0-6.968-2.208-6.968-7.135 0-7.987 9.262-9.432 17.418-9.261v7.137c0 .68-.084 1.528-.338 2.379-1.192 3.482-4.674 6.88-10.112 6.88zm29.74 4.59h7.477V155.66h-7.477v41.123zm3.57-48.091c2.973 0 4.757-2.04 4.757-4.588 0-2.633-1.868-4.672-4.587-4.672-2.802 0-4.674 2.124-4.674 4.672 0 2.548 1.785 4.588 4.503 4.588zm16.313 48.09h7.477v-21.92c0-1.19.087-2.464.257-3.484 1.018-5.608 4.755-9.516 10.025-9.516 1.018 0 1.785 0 2.549.17v-7.052c-.68-.086-1.276-.171-2.04-.171-5.012 0-9.6 3.484-11.471 9.007h-.255l-.338-8.157h-6.542c.254 3.824.338 7.986.338 12.83v28.293zm45.206-4.927c-7.56 0-13.933-4.163-14.103-14.274h28.886c.17-.85.254-1.955.254-3.484 0-7.562-3.482-19.288-16.992-19.288-11.978 0-19.287 9.687-19.287 22.092 0 12.404 7.564 20.816 20.22 20.816 6.543 0 11.134-1.445 13.766-2.634l-1.36-5.352c-2.719 1.188-6.03 2.124-11.384 2.124zm-2.548-31.692c8.41 0 10.45 7.392 10.366 12.064h-21.838c.596-5.183 3.824-12.064 11.472-12.064zM293.55 288.24l-8.063 23.626h3.154l2.455-7.43h8.377l2.522 7.43h3.26l-8.062-23.626h-3.643zm-1.825 13.812l2.314-6.837c.492-1.437.84-2.91 1.192-4.276h.07c.352 1.366.7 2.769 1.226 4.312l2.35 6.8h-7.152zm19.548-4.242l-.174-2.91h-2.736c.07 1.614.14 3.365.14 5.538v18.37h3.051v-9.219h.07c1.018 1.681 2.98 2.662 5.224 2.662 3.995 0 7.745-3.013 7.745-9.114 0-5.117-3.084-8.589-7.22-8.589-2.768 0-4.8 1.192-6.03 3.262h-.07zm.281 4.205c0-.385.104-.84.211-1.225.56-2.314 2.558-3.787 4.661-3.787 3.261 0 5.05 2.91 5.05 6.274 0 3.891-1.896 6.557-5.154 6.557-2.21 0-4.068-1.474-4.627-3.61-.107-.388-.14-.807-.14-1.262v-2.947zm25.756-7.467c-2.77 0-4.802 1.192-6.03 3.262h-.07l-.175-2.91H328.3c.07 1.614.141 3.365.141 5.538v18.37h3.05v-9.219h.07c1.019 1.681 2.98 2.662 5.224 2.662 3.995 0 7.745-3.013 7.745-9.114 0-5.117-3.084-8.589-7.22-8.589zm-1.052 15.286c-2.21 0-4.068-1.474-4.627-3.61-.107-.388-.14-.807-.14-1.262v-2.947c0-.385.103-.84.21-1.225.56-2.314 2.558-3.787 4.661-3.787 3.262 0 5.05 2.91 5.05 6.274 0 3.891-1.896 6.557-5.154 6.557zm14.92-11.57h-.106l-.141-3.364h-2.699c.107 1.577.14 3.295.14 5.294v11.672h3.085v-9.044c0-.492.036-1.018.107-1.436.422-2.314 1.962-3.928 4.135-3.928.422 0 .737 0 1.051.07v-2.91c-.277-.033-.525-.07-.84-.07-2.07 0-3.961 1.44-4.731 3.717zm15.032-3.716c-4.943 0-7.956 3.998-7.956 9.114 0 5.12 3.12 8.589 8.34 8.589 2.7 0 4.595-.596 5.68-1.085l-.56-2.21c-1.121.492-2.488.878-4.698.878-3.12 0-5.749-1.718-5.819-5.89h11.92c.07-.352.104-.807.104-1.437 0-3.12-1.436-7.959-7.011-7.959zm-4.976 7.19c.244-2.14 1.577-4.98 4.731-4.98 3.469 0 4.313 3.05 4.276 4.98h-9.007zm24.249-7.19c-2.803 0-4.768 1.58-5.609 3.158h-.07l-.174-2.806h-2.736c.107 1.403.14 2.806.14 4.594v12.372h3.085v-10.2c0-.525.07-1.05.21-1.439.563-1.718 2.14-3.154 4.14-3.154 2.909 0 3.923 2.28 3.923 5.012v9.781h3.084v-10.095c0-5.82-3.643-7.223-5.993-7.223zm25.615-7.57h-3.05v10.132h-.071c-.77-1.333-2.488-2.562-5.116-2.562-4.102 0-7.645 3.436-7.608 9.081 0 5.153 3.188 8.622 7.29 8.622 2.769 0 4.805-1.436 5.715-3.328h.104l.14 2.943h2.736a78.23 78.23 0 0 1-.14-4.383v-20.505zm-3.05 17.773c0 .489-.037.91-.141 1.332-.56 2.277-2.455 3.68-4.52 3.68-3.299 0-5.013-2.84-5.013-6.275 0-3.716 1.892-6.519 5.083-6.519 2.31 0 3.994 1.61 4.45 3.54.104.384.14.91.14 1.295v2.947zm10.995-6.486h-.107l-.14-3.365h-2.7c.108 1.577.141 3.295.141 5.294v11.672h3.084v-9.044c0-.492.037-1.018.107-1.436.422-2.314 1.963-3.928 4.136-3.928.422 0 .736 0 1.051.07v-2.91c-.278-.033-.526-.07-.84-.07-2.07 0-3.961 1.44-4.732 3.717zm15.031-3.717c-4.942 0-7.956 3.998-7.956 9.114 0 5.12 3.121 8.589 8.341 8.589 2.699 0 4.594-.596 5.68-1.085l-.56-2.21c-1.122.492-2.488.878-4.698.878-3.12 0-5.749-1.718-5.82-5.89h11.92c.071-.352.105-.807.105-1.437 0-3.12-1.437-7.959-7.012-7.959zm-4.975 7.19c.244-2.14 1.577-4.98 4.73-4.98 3.47 0 4.313 3.05 4.277 4.98H429.1zm29.954-7.19c-4.942 0-7.956 3.998-7.956 9.114 0 5.12 3.12 8.589 8.341 8.589 2.699 0 4.594-.596 5.679-1.085l-.56-2.21c-1.121.492-2.487.878-4.697.878-3.12 0-5.75-1.718-5.82-5.89h11.92c.071-.352.104-.807.104-1.437 0-3.12-1.436-7.959-7.011-7.959zm-4.976 7.19c.245-2.14 1.577-4.98 4.732-4.98 3.468 0 4.312 3.05 4.275 4.98h-9.007zm19.515-10.903l-3.014.91v3.155h-2.632v2.35h2.632v9.252c0 1.999.348 3.506 1.192 4.453.733.807 1.892 1.296 3.328 1.296 1.192 0 2.14-.21 2.736-.419l-.14-2.35c-.456.14-.948.21-1.789.21-1.717 0-2.313-1.191-2.313-3.294v-9.148h4.416v-2.35h-4.416v-4.065zm21.898-2.77c-2.418 0-4.628.212-6.483.526v23.205c1.54.174 3.329.28 5.539.28 4.59 0 8.237-1.191 10.48-3.401 2.173-2.173 3.399-5.327 3.399-9.181 0-3.824-1.226-6.556-3.366-8.485-2.065-1.892-5.186-2.943-9.57-2.943zm-.348 21.558c-1.192 0-2.314-.034-3.088-.141v-18.684c.807-.174 2-.315 3.577-.315 6.448 0 9.606 3.54 9.57 9.115 0 6.378-3.507 10.025-10.06 10.025zm23.96-15.075c-4.942 0-7.955 3.998-7.955 9.114 0 5.12 3.12 8.589 8.34 8.589 2.7 0 4.595-.596 5.68-1.085l-.56-2.21c-1.121.492-2.488.878-4.698.878-3.12 0-5.749-1.718-5.819-5.89h11.92c.07-.352.104-.807.104-1.437 0-3.12-1.436-7.959-7.011-7.959zm-4.975 7.19c.244-2.14 1.577-4.98 4.731-4.98 3.469 0 4.313 3.05 4.276 4.98h-9.007zm23.23 2.661c-.562 1.577-1.05 2.98-1.439 4.383h-.104c-.351-1.403-.807-2.806-1.366-4.383l-3.332-9.5h-3.294l6.449 16.967h2.946l6.66-16.966h-3.224l-3.295 9.5zm15.802-9.85c-4.942 0-7.956 3.997-7.956 9.113 0 5.12 3.12 8.589 8.34 8.589 2.7 0 4.595-.596 5.68-1.085l-.56-2.21c-1.121.492-2.487.878-4.697.878-3.121 0-5.75-1.718-5.82-5.89h11.92c.067-.352.104-.807.104-1.437 0-3.12-1.436-7.959-7.011-7.959zm-4.976 7.188c.245-2.14 1.577-4.979 4.731-4.979 3.47 0 4.313 3.05 4.276 4.98h-9.007zm24.246-7.189c-2.803 0-4.769 1.58-5.609 3.158h-.07l-.174-2.806h-2.736c.107 1.403.14 2.806.14 4.594v12.372h3.084v-10.2c0-.525.07-1.05.211-1.439.563-1.718 2.14-3.154 4.139-3.154 2.91 0 3.924 2.28 3.924 5.012v9.781h3.084v-10.095c0-5.82-3.643-7.223-5.993-7.223zm10.996 17.318h3.083V294.9h-3.083v16.966zm1.543-23.66c-1.158 0-1.928.874-1.928 1.926s.736 1.895 1.858 1.895c1.225 0 1.962-.844 1.962-1.895 0-1.085-.77-1.926-1.892-1.926zm14.19 6.342c-2.069 0-3.96 1.44-4.73 3.717h-.108l-.14-3.365h-2.7c.108 1.577.141 3.295.141 5.294v11.672h3.084v-9.044c0-.492.037-1.018.107-1.436.419-2.314 1.963-3.928 4.136-3.928.421 0 .736 0 1.051.07v-2.91c-.281-.033-.526-.07-.84-.07z" fill="#51cbde"/><path d="M586.586 256.6s-184.382 7.172-465.064 2.61c1.472-148.801 8.934-235.54 8.934-235.54h-3.76V0h-2.655l-4.203 81.404V1.77h-3.76c2.862 86.576-1.316 184.948-5.775 257.253C74.96 258.415 38.136 257.62 0 256.601v11.006s38.766-.65 109.78-.235c-3.647 57.29-7.307 96.24-7.307 96.24 3.966-9.542 9.813-67.49 12.518-96.208l1.593.01c-.426 29.484-2.829 84.417-2.829 84.417h2.71v-6.305h4.922c-.183-27.593-.138-53.614.064-78.078 99.348.71 255.524 3.479 453.19 12.38l-6.636-9.291-213.023-3.304 231.604-3.996v-6.636zm-470.121-5.308c.123 1.709.178 4.425.183 7.837l-.887-.015c.446-4.873.704-7.822.704-7.822z" fill="#f17837"/></svg>